<?xml version="1.0" standalone="no"?>
<!DOCTYPE svg PUBLIC "-//W3C//DTD SVG 20010904//EN"
 "http://www.w3.org/TR/2001/REC-SVG-20010904/DTD/svg10.dtd">
<svg version="1.0" xmlns="http://www.w3.org/2000/svg"
 width="700.000000pt" height="700.000000pt" viewBox="0 0 700.000000 700.000000"
 preserveAspectRatio="xMidYMid meet">
<metadata>
Created by potrace 1.11, written by Peter Selinger 2001-2013
</metadata>
<g transform="translate(0.000000,700.000000) scale(0.100000,-0.100000)"
fill="#000000" stroke="none">
<path d="M170 6882 c-133 -17 -208 -169 -141 -288 32 -57 72 -79 206 -114 375
-97 702 -241 966 -426 90 -62 221 -166 268 -211 l45 -43 -55 -1 c-29 0 -62 -2
-71 -4 -9 -2 -34 -5 -55 -8 -382 -54 -781 -356 -1006 -762 -103 -186 -205
-445 -220 -560 -3 -22 -8 -47 -11 -55 -25 -71 -36 -335 -23 -510 6 -77 11
-115 32 -245 4 -22 18 -89 32 -150 13 -60 26 -117 28 -125 2 -8 13 -53 24
-100 12 -47 23 -94 26 -105 2 -11 18 -74 34 -140 16 -66 34 -147 40 -180 5
-33 13 -78 17 -100 4 -22 8 -152 9 -290 2 -261 9 -314 45 -353 30 -32 69 -28
131 14 75 50 163 156 301 357 64 95 159 229 210 299 100 136 97 135 117 43 64
-295 125 -475 246 -720 88 -177 118 -230 198 -350 187 -279 403 -520 688 -769
149 -130 148 -129 254 -207 400 -296 779 -471 1252 -578 70 -16 153 -32 183
-36 66 -7 95 -12 135 -19 17 -3 68 -8 115 -11 47 -3 108 -8 135 -11 136 -14
573 -3 775 21 19 2 64 7 100 10 36 3 90 10 120 15 30 5 75 12 100 15 81 11
114 17 220 37 58 10 116 21 130 24 14 2 48 9 77 15 68 13 172 17 247 8 215
-26 324 -33 389 -25 45 6 64 15 99 45 74 66 119 182 113 293 -4 54 -14 145
-20 178 -3 14 -8 63 -11 110 -6 84 -5 86 36 175 87 185 174 456 221 685 11 58
23 114 25 125 8 39 12 71 19 140 4 38 8 72 11 76 8 14 18 250 18 439 0 178 -8
366 -19 450 -15 115 -28 201 -35 235 -5 22 -11 58 -14 80 -9 55 -54 243 -81
340 -84 292 -212 587 -362 838 -58 97 -215 325 -232 337 -4 3 -14 14 -22 26
-49 72 -284 317 -384 401 -28 23 -61 51 -75 63 -35 31 -204 157 -270 202 -166
111 -386 228 -566 301 -113 46 -324 119 -381 132 -18 3 -33 11 -33 17 0 5 19
35 43 66 143 189 213 354 178 420 -25 47 -92 46 -258 -3 -175 -53 -213 -59
-353 -60 -128 0 -199 8 -366 40 -262 50 -468 83 -589 94 -101 10 -511 6 -595
-4 -110 -14 -187 -25 -205 -29 -11 -2 -56 -9 -100 -16 -104 -16 -215 -53 -290
-97 -67 -40 -160 -130 -200 -193 -26 -42 -27 -42 -48 -23 -23 20 -82 70 -133
113 -59 50 -221 163 -309 216 -49 30 -97 59 -105 64 -44 28 -245 126 -310 152
-41 16 -88 36 -105 43 -58 27 -271 96 -390 127 -148 38 -183 44 -215 40z"/>
</g>
</svg>
